<svg xmlns="http://www.w3.org/2000/svg" viewBox="0 0 1200 630" width="1200" height="630" font-family="Arial, Helvetica, sans-serif">
  <defs>
    <radialGradient id="bg" cx="80%" cy="10%" r="110%">
      <stop offset="0%" stop-color="#1A2230"/>
      <stop offset="55%" stop-color="#0F1520"/>
      <stop offset="100%" stop-color="#0A0E15"/>
    </radialGradient>
    <pattern id="grid" width="52" height="52" patternUnits="userSpaceOnUse">
      <path d="M52 0H0V52" fill="none" stroke="#3E86F5" stroke-width="1" opacity="0.07"/>
    </pattern>
    <radialGradient id="gridfade" cx="78%" cy="12%" r="80%">
      <stop offset="0%" stop-color="#fff" stop-opacity="1"/>
      <stop offset="70%" stop-color="#fff" stop-opacity="0"/>
    </radialGradient>
    <mask id="gm"><rect width="1200" height="630" fill="url(#gridfade)"/></mask>
  </defs>

  <rect width="1200" height="630" fill="url(#bg)"/>
  <rect width="1200" height="630" fill="url(#grid)" mask="url(#gm)"/>

  <!-- Hex-flow mark, scaled from the 256 grid -->
  <g transform="translate(68,133) scale(1.42)" fill="none">
    <path d="M128 38 208 84 208 172 128 218 48 172 48 84Z" stroke="#4C8DF5" stroke-width="18" stroke-linejoin="round"/>
    <path d="M104 106 128 160" stroke="#4C8DF5" stroke-width="9" stroke-linecap="round"/>
    <path d="M152 106 128 160" stroke="#4C8DF5" stroke-width="9" stroke-linecap="round"/>
    <circle cx="104" cy="106" r="11" fill="#4C8DF5"/>
    <circle cx="152" cy="106" r="11" fill="#4C8DF5"/>
    <circle cx="128" cy="160" r="13" fill="#4C8DF5"/>
  </g>

  <!-- Wordmark + copy -->
  <text x="486" y="266" fill="#EEF1F5" font-size="98" font-weight="800" letter-spacing="14">ATLAS</text>
  <text x="489" y="330" fill="#C7CFDA" font-size="30" font-weight="500">Eine durable, blitzschnelle BPMN&#8202;2.x</text>
  <text x="489" y="372" fill="#C7CFDA" font-size="30" font-weight="500">Workflow-Engine in Go.</text>
  <text x="489" y="430" fill="#6BA6FF" font-size="21" font-family="monospace" letter-spacing="1">event-sourced · single-writer · group-commit</text>

  <line x1="96" y1="536" x2="1104" y2="536" stroke="#2A6BE0" stroke-width="1" opacity="0.45"/>
  <text x="96" y="580" fill="#8892A0" font-size="21" font-family="monospace">github.com/pblumer/atlas</text>
  <text x="1104" y="580" fill="#8892A0" font-size="21" font-family="monospace" text-anchor="end">bears the load · never drops a token</text>
</svg>
