<svg xmlns="http://www.w3.org/2000/svg" viewBox="0 0 1200 630" width="1200" height="630" font-family="Arial, Helvetica, sans-serif">
  <defs>
    <radialGradient id="bg" cx="80%" cy="10%" r="110%">
      <stop offset="0%" stop-color="#1A2230"/>
      <stop offset="55%" stop-color="#0F1520"/>
      <stop offset="100%" stop-color="#0A0E15"/>
    </radialGradient>
    <pattern id="grid" width="52" height="52" patternUnits="userSpaceOnUse">
      <path d="M52 0H0V52" fill="none" stroke="#3E86F5" stroke-width="1" opacity="0.07"/>
    </pattern>
    <radialGradient id="gridfade" cx="78%" cy="12%" r="80%">
      <stop offset="0%" stop-color="#fff" stop-opacity="1"/>
      <stop offset="70%" stop-color="#fff" stop-opacity="0"/>
    </radialGradient>
    <mask id="gm"><rect width="1200" height="630" fill="url(#gridfade)"/></mask>
  </defs>

  <rect width="1200" height="630" fill="url(#bg)"/>
  <rect width="1200" height="630" fill="url(#grid)" mask="url(#gm)"/>

  <!-- Mark, scaled from the 256 grid: scale 1.42, centred near x=250,y=315 -->
  <g transform="translate(122,133) scale(1.42)">
    <ellipse cx="128" cy="128" rx="108" ry="44" transform="rotate(-20 128 128)" fill="none" stroke="#2A6BE0" stroke-width="7"/>
    <circle cx="128" cy="128" r="54" fill="none" stroke="#2A6BE0" stroke-width="13"/>
    <path d="M110 116 128 150" stroke="#5A97F7" stroke-width="4.5" stroke-linecap="round" fill="none"/>
    <path d="M146 116 128 150" stroke="#5A97F7" stroke-width="4.5" stroke-linecap="round" fill="none"/>
    <circle cx="110" cy="116" r="7" fill="#5A97F7"/>
    <circle cx="146" cy="116" r="7" fill="#5A97F7"/>
    <circle cx="128" cy="150" r="7" fill="#5A97F7"/>
    <circle cx="174" cy="73" r="24" fill="#22C7E6" opacity="0.20"/>
    <circle cx="174" cy="73" r="12" fill="#22C7E6"/>
  </g>

  <!-- Wordmark + copy -->
  <text x="486" y="266" fill="#EEF1F5" font-size="98" font-weight="800" letter-spacing="14">ATLAS</text>
  <text x="489" y="330" fill="#C7CFDA" font-size="30" font-weight="500">Eine durable, blitzschnelle BPMN&#8202;2.x</text>
  <text x="489" y="372" fill="#C7CFDA" font-size="30" font-weight="500">Workflow-Engine in Go.</text>
  <text x="489" y="430" fill="#6BA6FF" font-size="21" font-family="monospace" letter-spacing="1">event-sourced · single-writer · group-commit</text>

  <line x1="96" y1="536" x2="1104" y2="536" stroke="#2A6BE0" stroke-width="1" opacity="0.45"/>
  <text x="96" y="580" fill="#8892A0" font-size="21" font-family="monospace">github.com/pblumer/atlas</text>
  <text x="1104" y="580" fill="#8892A0" font-size="21" font-family="monospace" text-anchor="end">bears the load · never drops a token</text>
</svg>
